<mxfile host="app.diagrams.net" agent="Mozilla/5.0 (Windows NT 10.0; Win64; x64) AppleWebKit/537.36 (KHTML, like Gecko) Chrome/134.0.0.0 Safari/537.36 Edg/134.0.0.0" version="26.1.1">
  <diagram name="Страница — 1" id="M4P3ON-bltGHgMy2eJLH">
    <mxGraphModel dx="1042" dy="565" grid="1" gridSize="10" guides="1" tooltips="1" connect="1" arrows="1" fold="1" page="1" pageScale="1" pageWidth="827" pageHeight="1169" math="0" shadow="0">
      <root>
        <mxCell id="0" />
        <mxCell id="1" parent="0" />
        <mxCell id="zFXYVZWAjd_w_KvNOqfs-1" value="Процесс регистрации/авторизации в системе" style="swimlane;html=1;startSize=20;fontStyle=0;collapsible=0;horizontal=1;swimlaneLine=1;strokeWidth=2;swimlaneFillColor=#ffffff;whiteSpace=wrap;" vertex="1" parent="1">
          <mxGeometry x="30" y="130" width="890" height="200" as="geometry" />
        </mxCell>
        <mxCell id="zFXYVZWAjd_w_KvNOqfs-3" value="Пользователь" style="swimlane;html=1;startSize=20;fontStyle=0;collapsible=0;horizontal=0;swimlaneLine=1;swimlaneFillColor=#ffffff;strokeWidth=2;whiteSpace=wrap;" vertex="1" parent="zFXYVZWAjd_w_KvNOqfs-1">
          <mxGeometry y="20" width="890" height="140" as="geometry" />
        </mxCell>
        <mxCell id="zFXYVZWAjd_w_KvNOqfs-5" value="" style="points=[[0.145,0.145,0],[0.5,0,0],[0.855,0.145,0],[1,0.5,0],[0.855,0.855,0],[0.5,1,0],[0.145,0.855,0],[0,0.5,0]];shape=mxgraph.bpmn.event;html=1;verticalLabelPosition=bottom;labelBackgroundColor=#ffffff;verticalAlign=top;align=center;perimeter=ellipsePerimeter;outlineConnect=0;aspect=fixed;outline=standard;symbol=general;" vertex="1" parent="zFXYVZWAjd_w_KvNOqfs-3">
          <mxGeometry x="50" y="55" width="30" height="30" as="geometry" />
        </mxCell>
        <mxCell id="zFXYVZWAjd_w_KvNOqfs-6" value="Вход на сайт" style="text;html=1;align=center;verticalAlign=middle;whiteSpace=wrap;rounded=0;" vertex="1" parent="zFXYVZWAjd_w_KvNOqfs-3">
          <mxGeometry x="35" y="85" width="60" height="30" as="geometry" />
        </mxCell>
        <mxCell id="zFXYVZWAjd_w_KvNOqfs-7" value="Авторизоваться на сайте" style="points=[[0.25,0,0],[0.5,0,0],[0.75,0,0],[1,0.25,0],[1,0.5,0],[1,0.75,0],[0.75,1,0],[0.5,1,0],[0.25,1,0],[0,0.75,0],[0,0.5,0],[0,0.25,0]];shape=mxgraph.bpmn.task2;whiteSpace=wrap;rectStyle=rounded;size=10;html=1;container=1;expand=0;collapsible=0;taskMarker=abstract;" vertex="1" parent="zFXYVZWAjd_w_KvNOqfs-3">
          <mxGeometry x="120" y="45" width="100" height="50" as="geometry" />
        </mxCell>
        <mxCell id="zFXYVZWAjd_w_KvNOqfs-8" value="" style="points=[[0.25,0.25,0],[0.5,0,0],[0.75,0.25,0],[1,0.5,0],[0.75,0.75,0],[0.5,1,0],[0.25,0.75,0],[0,0.5,0]];shape=mxgraph.bpmn.gateway2;html=1;verticalLabelPosition=bottom;labelBackgroundColor=#ffffff;verticalAlign=top;align=center;perimeter=rhombusPerimeter;outlineConnect=0;outline=none;symbol=none;gwType=exclusive;" vertex="1" parent="zFXYVZWAjd_w_KvNOqfs-3">
          <mxGeometry x="250" y="55" width="30" height="30" as="geometry" />
        </mxCell>
        <mxCell id="zFXYVZWAjd_w_KvNOqfs-17" value="Заполнить форму регистрации" style="points=[[0.25,0,0],[0.5,0,0],[0.75,0,0],[1,0.25,0],[1,0.5,0],[1,0.75,0],[0.75,1,0],[0.5,1,0],[0.25,1,0],[0,0.75,0],[0,0.5,0],[0,0.25,0]];shape=mxgraph.bpmn.task2;whiteSpace=wrap;rectStyle=rounded;size=10;html=1;container=1;expand=0;collapsible=0;taskMarker=abstract;" vertex="1" parent="zFXYVZWAjd_w_KvNOqfs-3">
          <mxGeometry x="310" y="45" width="100" height="50" as="geometry" />
        </mxCell>
        <mxCell id="zFXYVZWAjd_w_KvNOqfs-20" value="" style="points=[[0.145,0.145,0],[0.5,0,0],[0.855,0.145,0],[1,0.5,0],[0.855,0.855,0],[0.5,1,0],[0.145,0.855,0],[0,0.5,0]];shape=mxgraph.bpmn.event;html=1;verticalLabelPosition=bottom;labelBackgroundColor=#ffffff;verticalAlign=top;align=center;perimeter=ellipsePerimeter;outlineConnect=0;aspect=fixed;outline=standard;symbol=message;" vertex="1" parent="zFXYVZWAjd_w_KvNOqfs-3">
          <mxGeometry x="745" y="54" width="30" height="30" as="geometry" />
        </mxCell>
        <mxCell id="zFXYVZWAjd_w_KvNOqfs-21" value="Предоставление данных" style="text;html=1;align=center;verticalAlign=middle;whiteSpace=wrap;rounded=0;" vertex="1" parent="zFXYVZWAjd_w_KvNOqfs-3">
          <mxGeometry x="732" y="91" width="60" height="30" as="geometry" />
        </mxCell>
        <mxCell id="zFXYVZWAjd_w_KvNOqfs-23" value="Аккаунт уже есть?" style="text;html=1;align=center;verticalAlign=middle;whiteSpace=wrap;rounded=0;" vertex="1" parent="zFXYVZWAjd_w_KvNOqfs-3">
          <mxGeometry x="235" y="25" width="60" height="30" as="geometry" />
        </mxCell>
        <mxCell id="zFXYVZWAjd_w_KvNOqfs-24" value="" style="points=[[0.145,0.145,0],[0.5,0,0],[0.855,0.145,0],[1,0.5,0],[0.855,0.855,0],[0.5,1,0],[0.145,0.855,0],[0,0.5,0]];shape=mxgraph.bpmn.event;html=1;verticalLabelPosition=bottom;labelBackgroundColor=#ffffff;verticalAlign=top;align=center;perimeter=ellipsePerimeter;outlineConnect=0;aspect=fixed;outline=end;symbol=terminate;" vertex="1" parent="zFXYVZWAjd_w_KvNOqfs-3">
          <mxGeometry x="829" y="54" width="30" height="30" as="geometry" />
        </mxCell>
        <mxCell id="zFXYVZWAjd_w_KvNOqfs-26" value="" style="edgeStyle=elbowEdgeStyle;fontSize=12;html=1;endArrow=blockThin;endFill=1;rounded=0;exitX=1;exitY=0.5;exitDx=0;exitDy=0;exitPerimeter=0;entryX=0;entryY=0.5;entryDx=0;entryDy=0;entryPerimeter=0;" edge="1" parent="zFXYVZWAjd_w_KvNOqfs-3" source="zFXYVZWAjd_w_KvNOqfs-5" target="zFXYVZWAjd_w_KvNOqfs-7">
          <mxGeometry width="160" relative="1" as="geometry">
            <mxPoint x="330" y="150" as="sourcePoint" />
            <mxPoint x="490" y="150" as="targetPoint" />
          </mxGeometry>
        </mxCell>
        <mxCell id="zFXYVZWAjd_w_KvNOqfs-30" value="" style="edgeStyle=elbowEdgeStyle;fontSize=12;html=1;endArrow=blockThin;endFill=1;rounded=0;exitX=1;exitY=0.5;exitDx=0;exitDy=0;exitPerimeter=0;" edge="1" parent="zFXYVZWAjd_w_KvNOqfs-3" source="zFXYVZWAjd_w_KvNOqfs-17">
          <mxGeometry width="160" relative="1" as="geometry">
            <mxPoint x="430" y="190" as="sourcePoint" />
            <mxPoint x="440" y="70" as="targetPoint" />
          </mxGeometry>
        </mxCell>
        <mxCell id="zFXYVZWAjd_w_KvNOqfs-48" value="" style="points=[[0.145,0.145,0],[0.5,0,0],[0.855,0.145,0],[1,0.5,0],[0.855,0.855,0],[0.5,1,0],[0.145,0.855,0],[0,0.5,0]];shape=mxgraph.bpmn.event;html=1;verticalLabelPosition=bottom;labelBackgroundColor=#ffffff;verticalAlign=top;align=center;perimeter=ellipsePerimeter;outlineConnect=0;aspect=fixed;outline=catching;symbol=message;" vertex="1" parent="zFXYVZWAjd_w_KvNOqfs-3">
          <mxGeometry x="440" y="55" width="30" height="30" as="geometry" />
        </mxCell>
        <mxCell id="zFXYVZWAjd_w_KvNOqfs-51" value="Проверка почты" style="text;html=1;align=center;verticalAlign=middle;whiteSpace=wrap;rounded=0;" vertex="1" parent="zFXYVZWAjd_w_KvNOqfs-3">
          <mxGeometry x="425" y="91" width="60" height="30" as="geometry" />
        </mxCell>
        <mxCell id="zFXYVZWAjd_w_KvNOqfs-52" value="Ввести данные для проверки" style="points=[[0.25,0,0],[0.5,0,0],[0.75,0,0],[1,0.25,0],[1,0.5,0],[1,0.75,0],[0.75,1,0],[0.5,1,0],[0.25,1,0],[0,0.75,0],[0,0.5,0],[0,0.25,0]];shape=mxgraph.bpmn.task2;whiteSpace=wrap;rectStyle=rounded;size=10;html=1;container=1;expand=0;collapsible=0;taskMarker=abstract;" vertex="1" parent="zFXYVZWAjd_w_KvNOqfs-3">
          <mxGeometry x="520" y="45" width="90" height="50" as="geometry" />
        </mxCell>
        <mxCell id="zFXYVZWAjd_w_KvNOqfs-55" value="" style="edgeStyle=elbowEdgeStyle;fontSize=12;html=1;endArrow=blockThin;endFill=1;rounded=0;exitX=1;exitY=0.5;exitDx=0;exitDy=0;exitPerimeter=0;entryX=0;entryY=0.5;entryDx=0;entryDy=0;entryPerimeter=0;" edge="1" parent="zFXYVZWAjd_w_KvNOqfs-3" source="zFXYVZWAjd_w_KvNOqfs-48" target="zFXYVZWAjd_w_KvNOqfs-52">
          <mxGeometry width="160" relative="1" as="geometry">
            <mxPoint x="390" y="120" as="sourcePoint" />
            <mxPoint x="550" y="120" as="targetPoint" />
          </mxGeometry>
        </mxCell>
        <mxCell id="zFXYVZWAjd_w_KvNOqfs-58" value="Данные верны?" style="text;html=1;align=center;verticalAlign=middle;whiteSpace=wrap;rounded=0;" vertex="1" parent="zFXYVZWAjd_w_KvNOqfs-3">
          <mxGeometry x="652" y="25" width="60" height="30" as="geometry" />
        </mxCell>
        <mxCell id="zFXYVZWAjd_w_KvNOqfs-31" value="" style="edgeStyle=elbowEdgeStyle;fontSize=12;html=1;endArrow=blockThin;endFill=1;rounded=0;exitX=1;exitY=0.5;exitDx=0;exitDy=0;exitPerimeter=0;entryX=0;entryY=0.5;entryDx=0;entryDy=0;entryPerimeter=0;" edge="1" parent="zFXYVZWAjd_w_KvNOqfs-3" source="zFXYVZWAjd_w_KvNOqfs-20" target="zFXYVZWAjd_w_KvNOqfs-24">
          <mxGeometry width="160" relative="1" as="geometry">
            <mxPoint x="729" y="190" as="sourcePoint" />
            <mxPoint x="829" y="70" as="targetPoint" />
          </mxGeometry>
        </mxCell>
        <mxCell id="zFXYVZWAjd_w_KvNOqfs-65" value="Да" style="text;html=1;strokeColor=none;fillColor=none;align=center;verticalAlign=middle;whiteSpace=wrap;rounded=0;" vertex="1" parent="zFXYVZWAjd_w_KvNOqfs-3">
          <mxGeometry x="665" y="45" width="80" height="30" as="geometry" />
        </mxCell>
        <mxCell id="zFXYVZWAjd_w_KvNOqfs-88" value="Да" style="text;html=1;strokeColor=none;fillColor=none;align=center;verticalAlign=middle;whiteSpace=wrap;rounded=0;" vertex="1" parent="zFXYVZWAjd_w_KvNOqfs-3">
          <mxGeometry x="250" y="45" width="80" height="30" as="geometry" />
        </mxCell>
        <mxCell id="zFXYVZWAjd_w_KvNOqfs-89" value="Нет" style="text;html=1;strokeColor=none;fillColor=none;align=center;verticalAlign=middle;whiteSpace=wrap;rounded=0;" vertex="1" parent="zFXYVZWAjd_w_KvNOqfs-3">
          <mxGeometry x="210" y="75" width="80" height="30" as="geometry" />
        </mxCell>
        <mxCell id="zFXYVZWAjd_w_KvNOqfs-90" value="Нет" style="text;html=1;strokeColor=none;fillColor=none;align=center;verticalAlign=middle;whiteSpace=wrap;rounded=0;" vertex="1" parent="zFXYVZWAjd_w_KvNOqfs-3">
          <mxGeometry x="630" y="75" width="80" height="30" as="geometry" />
        </mxCell>
        <mxCell id="zFXYVZWAjd_w_KvNOqfs-49" value="" style="dashed=1;dashPattern=8 4;endArrow=blockThin;endFill=1;startArrow=oval;startFill=0;endSize=6;startSize=4;html=1;rounded=0;entryX=0.5;entryY=0;entryDx=0;entryDy=0;entryPerimeter=0;" edge="1" parent="zFXYVZWAjd_w_KvNOqfs-1" target="zFXYVZWAjd_w_KvNOqfs-48">
          <mxGeometry width="160" relative="1" as="geometry">
            <mxPoint x="454.71" y="-20" as="sourcePoint" />
            <mxPoint x="454.71" y="54" as="targetPoint" />
          </mxGeometry>
        </mxCell>
        <mxCell id="zFXYVZWAjd_w_KvNOqfs-4" value="Сервер" style="swimlane;html=1;startSize=20;fontStyle=0;collapsible=0;horizontal=0;swimlaneLine=1;swimlaneFillColor=#ffffff;strokeWidth=2;whiteSpace=wrap;" vertex="1" parent="1">
          <mxGeometry x="30" y="290" width="890" height="160" as="geometry" />
        </mxCell>
        <mxCell id="zFXYVZWAjd_w_KvNOqfs-10" value="Проверить данные" style="points=[[0.25,0,0],[0.5,0,0],[0.75,0,0],[1,0.25,0],[1,0.5,0],[1,0.75,0],[0.75,1,0],[0.5,1,0],[0.25,1,0],[0,0.75,0],[0,0.5,0],[0,0.25,0]];shape=mxgraph.bpmn.task2;whiteSpace=wrap;rectStyle=rounded;size=10;html=1;container=1;expand=0;collapsible=0;taskMarker=abstract;" vertex="1" parent="zFXYVZWAjd_w_KvNOqfs-4">
          <mxGeometry x="605" y="56" width="90" height="50" as="geometry" />
        </mxCell>
        <mxCell id="zFXYVZWAjd_w_KvNOqfs-9" value="Запросить данные" style="points=[[0.25,0,0],[0.5,0,0],[0.75,0,0],[1,0.25,0],[1,0.5,0],[1,0.75,0],[0.75,1,0],[0.5,1,0],[0.25,1,0],[0,0.75,0],[0,0.5,0],[0,0.25,0]];shape=mxgraph.bpmn.task2;whiteSpace=wrap;rectStyle=rounded;size=10;html=1;container=1;expand=0;collapsible=0;taskMarker=abstract;" vertex="1" parent="zFXYVZWAjd_w_KvNOqfs-4">
          <mxGeometry x="319" y="56" width="90" height="50" as="geometry" />
        </mxCell>
        <mxCell id="zFXYVZWAjd_w_KvNOqfs-13" value="" style="points=[[0.145,0.145,0],[0.5,0,0],[0.855,0.145,0],[1,0.5,0],[0.855,0.855,0],[0.5,1,0],[0.145,0.855,0],[0,0.5,0]];shape=mxgraph.bpmn.event;html=1;verticalLabelPosition=bottom;labelBackgroundColor=#ffffff;verticalAlign=top;align=center;perimeter=ellipsePerimeter;outlineConnect=0;aspect=fixed;outline=throwing;symbol=message;" vertex="1" parent="zFXYVZWAjd_w_KvNOqfs-4">
          <mxGeometry x="444" y="66" width="30" height="30" as="geometry" />
        </mxCell>
        <mxCell id="zFXYVZWAjd_w_KvNOqfs-14" value="" style="points=[[0.145,0.145,0],[0.5,0,0],[0.855,0.145,0],[1,0.5,0],[0.855,0.855,0],[0.5,1,0],[0.145,0.855,0],[0,0.5,0]];shape=mxgraph.bpmn.event;html=1;verticalLabelPosition=bottom;labelBackgroundColor=#ffffff;verticalAlign=top;align=center;perimeter=ellipsePerimeter;outlineConnect=0;aspect=fixed;outline=catching;symbol=message;" vertex="1" parent="zFXYVZWAjd_w_KvNOqfs-4">
          <mxGeometry x="545" y="66" width="30" height="30" as="geometry" />
        </mxCell>
        <mxCell id="zFXYVZWAjd_w_KvNOqfs-15" value="Запрос на предоставление данных" style="text;html=1;align=center;verticalAlign=middle;whiteSpace=wrap;rounded=0;" vertex="1" parent="zFXYVZWAjd_w_KvNOqfs-4">
          <mxGeometry x="429" y="106" width="60" height="30" as="geometry" />
        </mxCell>
        <mxCell id="zFXYVZWAjd_w_KvNOqfs-16" value="Предоставлены данные" style="text;html=1;align=center;verticalAlign=middle;whiteSpace=wrap;rounded=0;" vertex="1" parent="zFXYVZWAjd_w_KvNOqfs-4">
          <mxGeometry x="530" y="106" width="60" height="30" as="geometry" />
        </mxCell>
        <mxCell id="zFXYVZWAjd_w_KvNOqfs-18" value="" style="points=[[0.145,0.145,0],[0.5,0,0],[0.855,0.145,0],[1,0.5,0],[0.855,0.855,0],[0.5,1,0],[0.145,0.855,0],[0,0.5,0]];shape=mxgraph.bpmn.event;html=1;verticalLabelPosition=bottom;labelBackgroundColor=#ffffff;verticalAlign=top;align=center;perimeter=ellipsePerimeter;outlineConnect=0;aspect=fixed;outline=end;symbol=terminate;" vertex="1" parent="zFXYVZWAjd_w_KvNOqfs-4">
          <mxGeometry x="773" y="37.25" width="30" height="30" as="geometry" />
        </mxCell>
        <mxCell id="zFXYVZWAjd_w_KvNOqfs-19" value="" style="points=[[0.25,0.25,0],[0.5,0,0],[0.75,0.25,0],[1,0.5,0],[0.75,0.75,0],[0.5,1,0],[0.25,0.75,0],[0,0.5,0]];shape=mxgraph.bpmn.gateway2;html=1;verticalLabelPosition=bottom;labelBackgroundColor=#ffffff;verticalAlign=top;align=center;perimeter=rhombusPerimeter;outlineConnect=0;outline=none;symbol=none;gwType=exclusive;" vertex="1" parent="zFXYVZWAjd_w_KvNOqfs-4">
          <mxGeometry x="719" y="38.5" width="27.5" height="27.5" as="geometry" />
        </mxCell>
        <mxCell id="zFXYVZWAjd_w_KvNOqfs-22" value="Данные верны?" style="text;html=1;align=center;verticalAlign=middle;whiteSpace=wrap;rounded=0;" vertex="1" parent="zFXYVZWAjd_w_KvNOqfs-4">
          <mxGeometry x="702.75" y="90" width="60" height="30" as="geometry" />
        </mxCell>
        <mxCell id="zFXYVZWAjd_w_KvNOqfs-32" value="" style="edgeStyle=elbowEdgeStyle;fontSize=12;html=1;endArrow=blockThin;endFill=1;rounded=0;exitX=1;exitY=0.5;exitDx=0;exitDy=0;exitPerimeter=0;entryX=0;entryY=0.5;entryDx=0;entryDy=0;entryPerimeter=0;" edge="1" parent="zFXYVZWAjd_w_KvNOqfs-4" source="zFXYVZWAjd_w_KvNOqfs-9" target="zFXYVZWAjd_w_KvNOqfs-13">
          <mxGeometry width="160" relative="1" as="geometry">
            <mxPoint x="429" y="51" as="sourcePoint" />
            <mxPoint x="589" y="51" as="targetPoint" />
          </mxGeometry>
        </mxCell>
        <mxCell id="zFXYVZWAjd_w_KvNOqfs-33" value="" style="edgeStyle=elbowEdgeStyle;fontSize=12;html=1;endArrow=blockThin;endFill=1;rounded=0;exitX=1;exitY=0.5;exitDx=0;exitDy=0;exitPerimeter=0;entryX=0;entryY=0.5;entryDx=0;entryDy=0;entryPerimeter=0;" edge="1" parent="zFXYVZWAjd_w_KvNOqfs-4" source="zFXYVZWAjd_w_KvNOqfs-13" target="zFXYVZWAjd_w_KvNOqfs-14">
          <mxGeometry width="160" relative="1" as="geometry">
            <mxPoint x="429" y="51" as="sourcePoint" />
            <mxPoint x="589" y="51" as="targetPoint" />
          </mxGeometry>
        </mxCell>
        <mxCell id="zFXYVZWAjd_w_KvNOqfs-34" value="" style="edgeStyle=elbowEdgeStyle;fontSize=12;html=1;endArrow=blockThin;endFill=1;rounded=0;exitX=1;exitY=0.5;exitDx=0;exitDy=0;exitPerimeter=0;entryX=0;entryY=0.5;entryDx=0;entryDy=0;entryPerimeter=0;" edge="1" parent="zFXYVZWAjd_w_KvNOqfs-4" source="zFXYVZWAjd_w_KvNOqfs-14" target="zFXYVZWAjd_w_KvNOqfs-10">
          <mxGeometry width="160" relative="1" as="geometry">
            <mxPoint x="429" y="51" as="sourcePoint" />
            <mxPoint x="589" y="51" as="targetPoint" />
          </mxGeometry>
        </mxCell>
        <mxCell id="zFXYVZWAjd_w_KvNOqfs-35" value="" style="edgeStyle=elbowEdgeStyle;fontSize=12;html=1;endArrow=blockThin;endFill=1;rounded=0;exitX=1;exitY=0.5;exitDx=0;exitDy=0;exitPerimeter=0;entryX=0.5;entryY=1;entryDx=0;entryDy=0;entryPerimeter=0;" edge="1" parent="zFXYVZWAjd_w_KvNOqfs-4" source="zFXYVZWAjd_w_KvNOqfs-10" target="zFXYVZWAjd_w_KvNOqfs-19">
          <mxGeometry width="160" relative="1" as="geometry">
            <mxPoint x="429" y="51" as="sourcePoint" />
            <mxPoint x="719" y="80.75" as="targetPoint" />
            <Array as="points">
              <mxPoint x="733" y="70" />
            </Array>
          </mxGeometry>
        </mxCell>
        <mxCell id="zFXYVZWAjd_w_KvNOqfs-42" value="" style="edgeStyle=elbowEdgeStyle;fontSize=12;html=1;endArrow=blockThin;endFill=1;rounded=0;exitX=1;exitY=0.5;exitDx=0;exitDy=0;exitPerimeter=0;entryX=0;entryY=0.5;entryDx=0;entryDy=0;entryPerimeter=0;" edge="1" parent="zFXYVZWAjd_w_KvNOqfs-4" source="zFXYVZWAjd_w_KvNOqfs-19" target="zFXYVZWAjd_w_KvNOqfs-18">
          <mxGeometry width="160" relative="1" as="geometry">
            <mxPoint x="529" y="60" as="sourcePoint" />
            <mxPoint x="689" y="60" as="targetPoint" />
          </mxGeometry>
        </mxCell>
        <mxCell id="zFXYVZWAjd_w_KvNOqfs-87" value="Да" style="text;html=1;strokeColor=none;fillColor=none;align=center;verticalAlign=middle;whiteSpace=wrap;rounded=0;" vertex="1" parent="zFXYVZWAjd_w_KvNOqfs-4">
          <mxGeometry x="711" y="46" width="80" height="30" as="geometry" />
        </mxCell>
        <mxCell id="zFXYVZWAjd_w_KvNOqfs-91" value="Нет" style="text;html=1;strokeColor=none;fillColor=none;align=center;verticalAlign=middle;whiteSpace=wrap;rounded=0;" vertex="1" parent="zFXYVZWAjd_w_KvNOqfs-4">
          <mxGeometry x="674.5" y="14" width="80" height="30" as="geometry" />
        </mxCell>
        <mxCell id="zFXYVZWAjd_w_KvNOqfs-11" value="" style="swimlane;html=1;startSize=20;fontStyle=0;collapsible=0;horizontal=0;swimlaneLine=0;fillColor=none;whiteSpace=wrap;" vertex="1" parent="1">
          <mxGeometry x="31" y="460" width="889" height="30" as="geometry" />
        </mxCell>
        <mxCell id="zFXYVZWAjd_w_KvNOqfs-12" value="База данных" style="text;html=1;align=center;verticalAlign=middle;resizable=0;points=[];autosize=1;strokeColor=none;fillColor=none;" vertex="1" parent="zFXYVZWAjd_w_KvNOqfs-11">
          <mxGeometry x="345" width="90" height="30" as="geometry" />
        </mxCell>
        <mxCell id="zFXYVZWAjd_w_KvNOqfs-27" value="" style="edgeStyle=elbowEdgeStyle;fontSize=12;html=1;endArrow=blockThin;endFill=1;rounded=0;exitX=1;exitY=0.5;exitDx=0;exitDy=0;exitPerimeter=0;" edge="1" parent="1" source="zFXYVZWAjd_w_KvNOqfs-7">
          <mxGeometry width="160" relative="1" as="geometry">
            <mxPoint x="360" y="300" as="sourcePoint" />
            <mxPoint x="280" y="220" as="targetPoint" />
          </mxGeometry>
        </mxCell>
        <mxCell id="zFXYVZWAjd_w_KvNOqfs-28" value="" style="edgeStyle=elbowEdgeStyle;fontSize=12;html=1;endArrow=blockThin;endFill=1;rounded=0;" edge="1" parent="1">
          <mxGeometry width="160" relative="1" as="geometry">
            <mxPoint x="310" y="220" as="sourcePoint" />
            <mxPoint x="340" y="220" as="targetPoint" />
          </mxGeometry>
        </mxCell>
        <mxCell id="zFXYVZWAjd_w_KvNOqfs-29" value="" style="edgeStyle=elbowEdgeStyle;fontSize=12;html=1;endArrow=blockThin;endFill=1;rounded=0;exitX=0.5;exitY=1;exitDx=0;exitDy=0;exitPerimeter=0;entryX=0;entryY=0.5;entryDx=0;entryDy=0;entryPerimeter=0;" edge="1" parent="1" target="zFXYVZWAjd_w_KvNOqfs-9">
          <mxGeometry width="160" relative="1" as="geometry">
            <mxPoint x="295" y="236" as="sourcePoint" />
            <mxPoint x="480" y="301" as="targetPoint" />
            <Array as="points">
              <mxPoint x="295" y="331" />
            </Array>
          </mxGeometry>
        </mxCell>
        <mxCell id="zFXYVZWAjd_w_KvNOqfs-41" value="" style="edgeStyle=elbowEdgeStyle;fontSize=12;html=1;endArrow=blockThin;endFill=1;rounded=0;exitX=0.5;exitY=0;exitDx=0;exitDy=0;exitPerimeter=0;entryX=0.5;entryY=1;entryDx=0;entryDy=0;entryPerimeter=0;" edge="1" parent="1" source="zFXYVZWAjd_w_KvNOqfs-19" target="zFXYVZWAjd_w_KvNOqfs-8">
          <mxGeometry width="160" relative="1" as="geometry">
            <mxPoint x="400" y="310" as="sourcePoint" />
            <mxPoint x="560" y="310" as="targetPoint" />
            <Array as="points">
              <mxPoint x="320" y="280" />
            </Array>
          </mxGeometry>
        </mxCell>
        <mxCell id="zFXYVZWAjd_w_KvNOqfs-43" value="" style="dashed=1;dashPattern=8 4;endArrow=blockThin;endFill=1;startArrow=oval;startFill=0;endSize=6;startSize=4;html=1;rounded=0;exitX=0.5;exitY=1;exitDx=0;exitDy=0;exitPerimeter=0;" edge="1" parent="1" source="zFXYVZWAjd_w_KvNOqfs-13">
          <mxGeometry width="160" relative="1" as="geometry">
            <mxPoint x="490" y="390" as="sourcePoint" />
            <mxPoint x="490" y="460" as="targetPoint" />
          </mxGeometry>
        </mxCell>
        <mxCell id="zFXYVZWAjd_w_KvNOqfs-44" value="" style="dashed=1;dashPattern=8 4;endArrow=blockThin;endFill=1;startArrow=oval;startFill=0;endSize=6;startSize=4;html=1;rounded=0;entryX=0.5;entryY=1;entryDx=0;entryDy=0;entryPerimeter=0;" edge="1" parent="1" target="zFXYVZWAjd_w_KvNOqfs-14">
          <mxGeometry width="160" relative="1" as="geometry">
            <mxPoint x="590" y="460" as="sourcePoint" />
            <mxPoint x="570" y="380" as="targetPoint" />
          </mxGeometry>
        </mxCell>
        <mxCell id="zFXYVZWAjd_w_KvNOqfs-45" value="" style="dashed=1;dashPattern=8 4;endArrow=blockThin;endFill=1;startArrow=oval;startFill=0;endSize=6;startSize=4;html=1;rounded=0;exitX=0.5;exitY=1;exitDx=0;exitDy=0;exitPerimeter=0;" edge="1" parent="1" source="zFXYVZWAjd_w_KvNOqfs-20">
          <mxGeometry width="160" relative="1" as="geometry">
            <mxPoint x="728" y="280" as="sourcePoint" />
            <mxPoint x="791" y="460" as="targetPoint" />
          </mxGeometry>
        </mxCell>
        <mxCell id="zFXYVZWAjd_w_KvNOqfs-46" value="" style="swimlane;html=1;startSize=20;fontStyle=0;collapsible=0;horizontal=0;swimlaneLine=0;fillColor=none;whiteSpace=wrap;" vertex="1" parent="1">
          <mxGeometry x="30" y="80" width="889" height="30" as="geometry" />
        </mxCell>
        <mxCell id="zFXYVZWAjd_w_KvNOqfs-47" value="SMTP сервер (Gmail)" style="text;html=1;align=center;verticalAlign=middle;resizable=0;points=[];autosize=1;strokeColor=none;fillColor=none;" vertex="1" parent="zFXYVZWAjd_w_KvNOqfs-46">
          <mxGeometry x="320" width="140" height="30" as="geometry" />
        </mxCell>
        <mxCell id="zFXYVZWAjd_w_KvNOqfs-57" value="" style="points=[[0.25,0.25,0],[0.5,0,0],[0.75,0.25,0],[1,0.5,0],[0.75,0.75,0],[0.5,1,0],[0.25,0.75,0],[0,0.5,0]];shape=mxgraph.bpmn.gateway2;html=1;verticalLabelPosition=bottom;labelBackgroundColor=#ffffff;verticalAlign=top;align=center;perimeter=rhombusPerimeter;outlineConnect=0;outline=none;symbol=none;gwType=exclusive;" vertex="1" parent="1">
          <mxGeometry x="697.5" y="205.25" width="27.5" height="27.5" as="geometry" />
        </mxCell>
        <mxCell id="zFXYVZWAjd_w_KvNOqfs-61" value="" style="edgeStyle=elbowEdgeStyle;fontSize=12;html=1;endArrow=blockThin;endFill=1;rounded=0;exitX=1;exitY=0.5;exitDx=0;exitDy=0;exitPerimeter=0;" edge="1" parent="1" source="zFXYVZWAjd_w_KvNOqfs-52" target="zFXYVZWAjd_w_KvNOqfs-57">
          <mxGeometry width="160" relative="1" as="geometry">
            <mxPoint x="640" y="220" as="sourcePoint" />
            <mxPoint x="720" y="220" as="targetPoint" />
            <Array as="points">
              <mxPoint x="690" y="220" />
            </Array>
          </mxGeometry>
        </mxCell>
        <mxCell id="zFXYVZWAjd_w_KvNOqfs-63" value="" style="edgeStyle=elbowEdgeStyle;fontSize=12;html=1;endArrow=blockThin;endFill=1;rounded=0;entryX=0;entryY=0.5;entryDx=0;entryDy=0;entryPerimeter=0;" edge="1" parent="1" source="zFXYVZWAjd_w_KvNOqfs-57" target="zFXYVZWAjd_w_KvNOqfs-20">
          <mxGeometry width="160" relative="1" as="geometry">
            <mxPoint x="620" y="250" as="sourcePoint" />
            <mxPoint x="780" y="250" as="targetPoint" />
          </mxGeometry>
        </mxCell>
        <mxCell id="zFXYVZWAjd_w_KvNOqfs-64" value="" style="edgeStyle=elbowEdgeStyle;fontSize=12;html=1;endArrow=blockThin;endFill=1;rounded=0;exitX=0.5;exitY=1;exitDx=0;exitDy=0;exitPerimeter=0;entryX=0.5;entryY=1;entryDx=0;entryDy=0;entryPerimeter=0;" edge="1" parent="1" source="zFXYVZWAjd_w_KvNOqfs-57" target="zFXYVZWAjd_w_KvNOqfs-48">
          <mxGeometry width="160" relative="1" as="geometry">
            <mxPoint x="520" y="240" as="sourcePoint" />
            <mxPoint x="680" y="240" as="targetPoint" />
            <Array as="points">
              <mxPoint x="700" y="280" />
            </Array>
          </mxGeometry>
        </mxCell>
      </root>
    </mxGraphModel>
  </diagram>
</mxfile>
